<svg height="438pt" viewBox="-70 0 438 438.8651" width="438pt" xmlns="http://www.w3.org/2000/svg"><path d="m249.304688 38.042969c-32.058594-28.703125-73.476563-41.847657-116.617188-37.089844-66.914062 7.4375-121.960938 61.1875-130.894531 127.804687-8.136719 60.667969 20.726562 119.507813 73.523437 149.917969 9.386719 5.394531 15.214844 15.574219 15.214844 26.546875v75.304688c0 10.078125 8.203125 18.285156 18.289062 18.285156h1.738282v26.339844c0 7.5625 6.152344 13.710937 13.714844 13.710937h50.9375c7.5625 0 13.714843-6.148437 13.714843-13.710937v-26.339844h1.742188c10.082031 0 18.285156-8.207031 18.285156-18.285156v-75.304688c0-10.980468 5.816406-21.144531 15.183594-26.527344 46.222656-26.605468 74.941406-76.167968 74.941406-129.347656 0-42.417968-18.144531-82.992187-49.773437-111.304687zm-58.632813 302.429687h-81.851563v-21.769531h81.847657zm-20.03125 80.105469h-41.796875v-21.765625h41.796875zm18.285156-40.050781h-80.105469v-21.769532h81.855469l.003907 21.769532zm26.089844-117.6875c-13.636719 7.847656-22.582031 21.945312-24.113281 37.578125h-82.320313c-1.53125-15.625-10.488281-29.742188-24.136719-37.589844-46.347656-26.6875-71.675781-78.355469-64.527343-131.640625 7.828125-58.410156 56.105469-105.535156 114.789062-112.054688 37.871094-4.25 74.261719 7.347657 102.402344 32.535157 27.761719 24.847656 43.683594 60.449219 43.683594 97.679687 0 46.652344-25.207031 90.144532-65.777344 113.492188zm0 0"/></svg>